<svg width="24" height="24" viewBox="0 0 24 24" fill="none" xmlns="http://www.w3.org/2000/svg">
<g clip-path="url(#clip0_2210_40)">
<path d="M-0.199951 19.2C-0.199951 20.5238 0.876299 21.6 2.20005 21.6H11.8001C13.1238 21.6 14.2001 20.5238 14.2001 19.2L14.2001 4.80001C14.2001 3.47626 13.1238 2.40001 11.8001 2.40001H2.20005C0.876299 2.40001 -0.199951 3.47626 -0.199951 4.80001L-0.199951 19.2Z" fill="#249EAD"/>
<path d="M5.45091 15.8327L15.6328 5.65075C16.3736 4.90998 17.5796 4.90998 18.3204 5.65075L25.1083 12.4387C25.8491 13.1795 25.8491 14.3855 25.1083 15.1263L14.9264 25.3082C14.1856 26.049 12.9796 26.049 12.2389 25.3082L5.45091 18.5202C4.71014 17.7795 4.71014 16.5734 5.45091 15.8327Z" fill="#249EAD" stroke="#EAEAE9"/>
</g>
<defs>
<clipPath id="clip0_2210_40">
<rect width="24" height="24" fill="white"/>
</clipPath>
</defs>
</svg>
