<svg width="24" height="24" viewBox="0 0 24 24" fill="none" xmlns="http://www.w3.org/2000/svg">
<path d="M4.79999 4.80001C4.79999 4.13626 4.26374 3.60001 3.59999 3.60001C2.93624 3.60001 2.39999 4.13626 2.39999 4.80001V17.4C2.39999 19.0575 3.74249 20.4 5.39999 20.4H20.4C21.0637 20.4 21.6 19.8638 21.6 19.2C21.6 18.5363 21.0637 18 20.4 18H5.39999C5.06999 18 4.79999 17.73 4.79999 17.4V4.80001ZM20.0475 8.04751C20.5162 7.57876 20.5162 6.81751 20.0475 6.34876C19.5787 5.88001 18.8175 5.88001 18.3487 6.34876L14.4 10.3013L12.2475 8.15251C11.7787 7.68376 11.0175 7.68376 10.5487 8.15251L6.94874 11.7525C6.47999 12.2213 6.47999 12.9825 6.94874 13.4513C7.41749 13.92 8.17874 13.92 8.64749 13.4513L11.4 10.6988L13.5525 12.8513C14.0212 13.32 14.7825 13.32 15.2512 12.8513L20.0512 8.05126L20.0475 8.04751Z" fill="#4A5565"/>
</svg>
