<svg width="24" height="24" viewBox="0 0 24 24" fill="none" xmlns="http://www.w3.org/2000/svg">
<path d="M12 21.6C17.3025 21.6 21.6 17.3025 21.6 12C21.6 6.69749 17.3025 2.39999 12 2.39999C6.69752 2.39999 2.40002 6.69749 2.40002 12C2.40002 17.3025 6.69752 21.6 12 21.6ZM12 8.99999C11.3363 8.99999 10.8 9.53624 10.8 10.2C10.8 10.6987 10.3988 11.1 9.90002 11.1C9.40127 11.1 9.00002 10.6987 9.00002 10.2C9.00002 8.54249 10.3425 7.19999 12 7.19999C13.6575 7.19999 15 8.54249 15 10.2C15 11.97 13.65 12.72 12.9 12.9937V13.1362C12.9 13.635 12.4988 14.0362 12 14.0362C11.5013 14.0362 11.1 13.635 11.1 13.1362V12.8325C11.1 12.0637 11.655 11.5125 12.2288 11.325C12.4688 11.2462 12.7238 11.1187 12.9113 10.9387C13.0725 10.7812 13.2 10.5637 13.2 10.2037C13.2 9.53999 12.6638 9.00374 12 9.00374V8.99999ZM10.8 16.2C10.8 15.5362 11.3363 15 12 15C12.6638 15 13.2 15.5362 13.2 16.2C13.2 16.8637 12.6638 17.4 12 17.4C11.3363 17.4 10.8 16.8637 10.8 16.2Z" fill="#249EAD"/>
</svg>
