<svg width="24" height="24" viewBox="0 0 24 24" fill="none" xmlns="http://www.w3.org/2000/svg">
<path d="M12.8175 2.7225C12.3563 2.295 11.6438 2.295 11.1863 2.7225L2.78626 10.5225C2.42626 10.86 2.30626 11.3812 2.48626 11.8387C2.66626 12.2962 3.10501 12.6 3.60001 12.6H4.20001V19.2C4.20001 20.5237 5.27626 21.6 6.60001 21.6H17.4C18.7238 21.6 19.8 20.5237 19.8 19.2V12.6H20.4C20.895 12.6 21.3375 12.2962 21.5175 11.8387C21.6975 11.3812 21.5775 10.8562 21.2175 10.5225L12.8175 2.7225ZM11.4 14.4H12.6C13.5938 14.4 14.4 15.2062 14.4 16.2V19.8H9.60001V16.2C9.60001 15.2062 10.4063 14.4 11.4 14.4Z" fill="#249EAD"/>
</svg>
