<svg width="24" height="24" viewBox="0 0 24 24" fill="none" xmlns="http://www.w3.org/2000/svg">
<path d="M10.8 2.39999C12.1238 2.39999 13.2 3.20624 13.2 4.19999C13.2 4.58999 13.035 4.94999 12.75 5.24624C12.5025 5.50499 12.3 5.81999 12.3 6.17999C12.3 6.74249 12.7575 7.19999 13.32 7.19999H15C15.9938 7.19999 16.8 8.00624 16.8 8.99999V10.68C16.8 11.2425 17.2575 11.7 17.82 11.7C18.1763 11.7 18.495 11.4975 18.7538 11.25C19.05 10.9687 19.41 10.8 19.8 10.8C20.7938 10.8 21.6 11.8762 21.6 13.2C21.6 14.5237 20.7938 15.6 19.8 15.6C19.41 15.6 19.0463 15.435 18.7538 15.15C18.495 14.9025 18.18 14.7 17.82 14.7C17.2575 14.7 16.8 15.1575 16.8 15.72V19.8C16.8 20.7937 15.9938 21.6 15 21.6H12.87C12.39 21.6 12 21.21 12 20.73C12 20.385 12.2175 20.0812 12.495 19.875C12.93 19.5487 13.2 19.0987 13.2 18.6C13.2 17.6062 12.1238 16.8 10.8 16.8C9.47627 16.8 8.40002 17.6062 8.40002 18.6C8.40002 19.0987 8.67002 19.5487 9.10502 19.875C9.38252 20.0812 9.60002 20.3812 9.60002 20.73C9.60002 21.21 9.21002 21.6 8.73002 21.6H4.20002C3.20627 21.6 2.40002 20.7937 2.40002 19.8V15.27C2.40002 14.79 2.79002 14.4 3.27002 14.4C3.61502 14.4 3.91877 14.6175 4.12502 14.895C4.45127 15.33 4.90127 15.6 5.40002 15.6C6.39377 15.6 7.20002 14.5237 7.20002 13.2C7.20002 11.8762 6.39377 10.8 5.40002 10.8C4.90127 10.8 4.45127 11.07 4.12502 11.505C3.91877 11.7825 3.61877 12 3.27002 12C2.79002 12 2.40002 11.61 2.40002 11.13V8.99999C2.40002 8.00624 3.20627 7.19999 4.20002 7.19999H8.28002C8.84252 7.19999 9.30002 6.74249 9.30002 6.17999C9.30002 5.82374 9.09752 5.50499 8.85002 5.24624C8.56877 4.94999 8.40002 4.58999 8.40002 4.19999C8.40002 3.20624 9.47627 2.39999 10.8 2.39999Z" fill="#249EAD"/>
</svg>
